<?xml version="1.0" standalone="no"?>
<!DOCTYPE svg PUBLIC "-//W3C//DTD SVG 1.1//EN" "http://www.w3.org/Graphics/SVG/1.1/DTD/svg11.dtd" >
<svg xmlns="http://www.w3.org/2000/svg">
<metadata>Generated by IcoMoon</metadata>
<defs>
<font id="icomoon" horiz-adv-x="1024">
<font-face units-per-em="1024" ascent="960" descent="-64" />
<missing-glyph horiz-adv-x="1024" />
<glyph unicode="&#x20;" horiz-adv-x="512" d="" />
<glyph unicode="&#xe900;" glyph-name="right-arrow" horiz-adv-x="1385" d="M873.219-45.592l-89.895 87.811 351.226 351.222h-1099.667v125.438h1099.667l-353.316 353.315 89.895 87.806 503.844-503.84-501.754-501.752z" />
<glyph unicode="&#xe901;" glyph-name="logout" d="M796.442 675.556l-80.211-80.214 89.888-90.453h-464.785v-113.778h464.785l-89.888-89.882 80.211-80.787 227.558 227.558-227.558 227.556zM113.778 846.222h398.222v113.778h-398.222c-62.578 0-113.778-51.2-113.778-113.778v-796.443c0-62.579 51.2-113.779 113.778-113.779h398.222v113.779h-398.222v796.443z" />
<glyph unicode="&#xe902;" glyph-name="moon" d="M362.382 817.209c-10.24-36.409-15.36-74.525-15.36-113.209 0-232.107 188.871-420.979 420.978-420.979 38.682 0 76.8 5.12 113.21 15.36-59.168-145.632-202.528-248.602-369.21-248.602-219.591 0-398.222 178.63-398.222 398.221 0 166.684 102.969 310.044 248.604 369.209zM512 960c-282.738 0-512-229.262-512-512s229.262-512 512-512c282.739 0 512 229.261 512 512 0 26.169-2.278 52.338-5.69 77.369-55.75-77.938-146.771-128.569-250.31-128.569-169.529 0-307.2 137.671-307.2 307.2 0 102.969 50.631 194.56 128.569 250.311-25.031 3.413-51.2 5.689-77.369 5.689z" />
<glyph unicode="&#xe903;" glyph-name="user" horiz-adv-x="970" d="M485.053 857.6c-89.295 0-161.684-68.769-161.684-153.6s72.389-153.6 161.684-153.6c89.298 0 161.684 68.769 161.684 153.6s-72.386 153.6-161.684 153.6zM215.579 704c0 141.385 120.648 256 269.474 256 148.825 0 269.474-114.615 269.474-256s-120.649-256-269.474-256c-148.826 0-269.474 114.615-269.474 256zM78.927 270.622c50.536 48.009 119.078 74.978 190.546 74.978h431.158c71.47 0 140.013-26.969 190.545-74.978 50.537-48.009 78.929-113.125 78.929-181.022v-102.4c0-28.279-24.129-51.2-53.895-51.2s-53.895 22.921-53.895 51.2v102.4c0 40.739-17.036 79.807-47.357 108.614-30.321 28.801-71.448 44.986-114.327 44.986h-431.158c-42.881 0-84.006-16.185-114.328-44.986-30.322-28.807-47.356-67.875-47.356-108.614v-102.4c0-28.279-24.13-51.2-53.895-51.2s-53.895 22.921-53.895 51.2v102.4c0 67.897 28.391 133.012 78.927 181.022z" />
<glyph unicode="&#xe904;" glyph-name="filter" horiz-adv-x="1446" d="M562.196-62.235h321.257v160.551h-321.257v-160.551zM0 901.044v-160.546h1445.647v160.546h-1445.647zM240.941 339.131h963.765v160.548h-963.765v-160.548z" />
<glyph unicode="&#xe905;" glyph-name="search" horiz-adv-x="768" d="M281.868 248.801l-10.461 39.020 9.635 17.403c69.314-33.316 150.265-42.87 229.829-21.565 177.41 47.514 282.687 229.764 235.148 407.086s-229.878 282.543-407.289 235.029c-177.412-47.513-282.686-229.761-235.149-407.083 21.319-79.522 70.073-144.818 133.599-188.153l-10.262-17.044-39.040-10.455-180.39-313.006 93.363-53.878 181.016 312.648zM202.419 545.16c-32.971 122.989 39.744 248.871 162.796 281.826s248.996-39.723 281.969-162.713c32.973-122.989-39.741-248.873-162.795-281.825-123.052-32.957-248.998 39.721-281.97 162.712z" />
<glyph unicode="&#xe906;" glyph-name="bag" horiz-adv-x="1178" d="M368.114 915.012c28.805 28.806 67.874 44.988 108.612 44.988h204.798c40.74 0 79.805-16.183 108.616-44.988 28.805-28.806 44.984-67.874 44.984-108.612v-51.2h153.6c84.833 0 153.6-68.769 153.6-153.6v-512c0-84.833-68.767-153.6-153.6-153.6h-819.198c-84.831 0-153.6 68.767-153.6 153.6v512c0 84.831 68.769 153.6 153.6 153.6h153.6v51.2c0 40.737 16.183 79.806 44.988 108.612zM323.125 652.8h-153.6c-28.277 0-51.2-22.923-51.2-51.2v-512c0-28.278 22.923-51.2 51.2-51.2h153.6v614.4zM425.525 38.4h307.198v614.4h-307.198v-614.4zM835.123 38.4h153.6c28.278 0 51.2 22.922 51.2 51.2v512c0 28.277-22.922 51.2-51.2 51.2h-153.6v-614.4zM732.723 755.2v51.2c0 13.579-5.391 26.602-14.996 36.204-9.6 9.602-22.62 14.996-36.204 14.996h-204.798c-13.579 0-26.602-5.394-36.204-14.996s-14.996-22.625-14.996-36.204v-51.2h307.198z" />
<glyph unicode="&#xe907;" glyph-name="shop" horiz-adv-x="1122" d="M925.545 609.595l35.757-182.763h-829.603l35.759 182.763h758.087zM1023.283 914.202h-953.566v-121.843h953.566v121.843zM1023.283 731.438h-953.566l-59.598-304.605v-121.846h59.598v-365.529h595.981v365.529h238.392v-365.529h119.194v365.529h59.597v121.846l-59.597 304.605zM188.913 61.303v243.683h357.586v-243.683h-357.586z" />
<glyph unicode="&#xe908;" glyph-name="reports" d="M871.951 914.202h-758.519c-59.598 0-108.36-48.737-108.36-108.305v-758.135c0-59.568 48.762-108.305 108.36-108.305h758.519c59.597 0 108.359 48.738 108.359 108.305v758.135c0 59.568-48.762 108.305-108.359 108.305zM871.951 47.762h-758.519v758.135h758.519v-758.135zM221.791 535.135h108.36v-379.068h-108.36v379.068zM438.51 697.593h108.359v-541.525h-108.359v541.525zM655.228 372.677h108.364v-216.61h-108.364v216.61z" />
<glyph unicode="&#xe909;" glyph-name="home-grid" horiz-adv-x="878" d="M97.524 914.202c-53.861 0-97.524-43.641-97.524-97.475v-146.212c0-53.834 43.663-97.474 97.524-97.474h195.048c53.861 0 97.524 43.64 97.524 97.474v146.212c0 53.834-43.663 97.475-97.524 97.475h-195.048zM97.524 816.728h195.048v-146.212h-195.048v146.212zM585.143 914.202c-53.862 0-97.524-43.641-97.524-97.475v-341.16c0-53.836 43.661-97.473 97.524-97.473h195.048c53.862 0 97.524 43.637 97.524 97.473v341.16c0 53.834-43.661 97.475-97.524 97.475h-195.048zM585.143 816.728h195.048v-341.16h-195.048v341.16zM487.619 183.145c0 53.833 43.661 97.475 97.524 97.475h195.048c53.862 0 97.524-43.642 97.524-97.475v-146.213c0-53.833-43.661-97.475-97.524-97.475h-195.048c-53.862 0-97.524 43.642-97.524 97.475v146.213zM780.19 183.145h-195.048v-146.213h195.048v146.213zM97.524 475.568c-53.861 0-97.524-43.639-97.524-97.473v-341.163c0-53.833 43.663-97.475 97.524-97.475h195.048c53.861 0 97.524 43.642 97.524 97.475v341.163c0 53.833-43.663 97.473-97.524 97.473h-195.048zM97.524 378.095h195.048v-341.163h-195.048v341.163z" />
<glyph unicode="&#xe90a;" glyph-name="dustbin" horiz-adv-x="878" d="M806.268 594.23l-18.198-499.196c-1.551-42.752-21.424-83.28-55.398-112.969-33.976-29.696-79.382-46.219-126.581-46.065h-345.766c-47.168-0.154-92.549 16.347-126.521 46.007-33.971 29.652-53.865 70.137-55.461 112.859l-18.198 499.364c-0.398 10.935 4.013 21.566 12.264 29.554s19.664 12.678 31.731 13.038c12.066 0.361 23.796-3.637 32.61-11.115s13.989-17.821 14.386-28.757l18.199-499.32c0.906-21.314 10.891-41.487 27.858-56.269s39.595-23.040 63.133-23.018h345.766c23.567-0.015 46.222 8.258 63.194 23.077s26.936 35.028 27.797 56.379l18.198 499.152c0.398 10.936 5.573 21.279 14.386 28.757s20.545 11.475 32.614 11.115c12.061-0.361 23.479-5.051 31.729-13.038s12.661-18.619 12.259-29.554zM866.465 760.354c0-10.935-4.798-21.423-13.327-29.155-8.536-7.732-20.107-12.077-32.176-12.077h-775.467c-12.066 0-23.638 4.345-32.17 12.077s-13.325 18.221-13.325 29.155c0 10.936 4.793 21.424 13.325 29.155s20.104 12.077 32.17 12.077h141.036c14.415-0.035 28.329 4.792 39.034 13.541s17.435 20.795 18.881 33.793c3.357 30.492 19.12 58.759 44.217 79.293s57.73 31.866 91.542 31.786h106.004c33.811 0.080 66.444-11.252 91.541-31.786s40.86-48.802 44.217-79.293c1.446-12.998 8.177-25.044 18.882-33.793s24.619-13.576 39.034-13.541h141.034c12.069 0 23.64-4.344 32.176-12.077 8.528-7.732 13.319-18.22 13.319-29.155h0.051zM323.427 801.586h219.652c-5.979 12.38-9.889 25.499-11.602 38.923-1.126 10.164-6.377 19.586-14.731 26.442s-19.22 10.657-30.491 10.667h-106.004c-11.271-0.010-22.136-3.811-30.491-10.667s-13.605-16.278-14.732-26.442c-1.728-13.426-5.652-26.545-11.647-38.923h0.045zM369.241 176.881v351.089c0 10.936-4.793 21.423-13.325 29.155s-20.104 12.077-32.17 12.077c-12.066 0-23.638-4.344-32.17-12.077s-13.326-18.22-13.326-29.155v-351.257c0-10.935 4.794-21.424 13.326-29.155s20.104-12.076 32.17-12.076c12.066 0 23.638 4.345 32.17 12.076s13.325 18.22 13.325 29.155v0.168zM588.257 176.881v351.089c0 10.936-4.793 21.423-13.325 29.155s-20.104 12.077-32.17 12.077c-12.066 0-23.638-4.344-32.17-12.077s-13.326-18.22-13.326-29.155v-351.257c0-10.935 4.794-21.424 13.326-29.155s20.104-12.076 32.17-12.076c12.066 0 23.638 4.345 32.17 12.076s13.325 18.22 13.325 29.155v0.168z" />
<glyph unicode="&#xe90b;" glyph-name="edit" horiz-adv-x="878" d="M770.443 38.7h-718.879c-13.618 0-26.679-5.413-36.309-15.045-9.63-9.626-15.040-22.689-15.040-36.308s5.41-26.675 15.040-36.308c9.63-9.626 22.69-15.038 36.309-15.038h718.879c13.612 0 26.675 5.413 36.308 15.038 9.626 9.633 15.038 22.689 15.038 36.308s-5.413 26.683-15.038 36.308c-9.633 9.633-22.696 15.045-36.308 15.045zM51.564 141.392h4.621l214.122 19.515c23.456 2.333 45.394 12.668 62.132 29.264l462.133 462.137c17.935 18.949 27.633 44.236 26.96 70.32s-11.666 50.836-30.552 68.835l-140.696 140.694c-18.363 17.248-42.425 27.145-67.609 27.808s-49.733-7.955-68.978-24.213l-462.134-462.134c-16.598-16.738-26.932-38.676-29.269-62.132l-22.080-214.124c-0.692-7.519 0.284-15.097 2.858-22.199s6.683-13.546 12.033-18.878c4.798-4.762 10.488-8.521 16.744-11.081 6.256-2.553 12.955-3.847 19.713-3.811zM578.911 860.269l140.18-140.18-102.696-100.129-137.613 137.613 100.129 102.696zM121.912 402.756l289.091 287.037 138.64-138.64-287.55-287.55-154.045-14.378 13.864 153.531z" />
<glyph unicode="&#xe90c;" glyph-name="eye" horiz-adv-x="1682" d="M819.288-64c-104.45 0-212.312 25.944-320.856 76.8-84.992 39.936-170.666 95.232-254.634 164.52-141.654 117.080-229.035 233.133-232.79 237.912-14.677 19.456-14.677 46.080 0 65.536 3.755 4.778 91.136 120.832 232.79 237.91 83.968 69.29 169.642 124.586 254.634 164.522 108.544 50.859 216.406 76.8 320.856 76.8 104.448 0 212.304-25.941 320.848-76.8 84.992-39.936 170.672-95.232 254.64-164.522 141.648-117.078 229.376-233.131 232.784-237.91 14.68-19.456 14.68-46.080 0-65.536-3.752-4.778-91.136-120.832-232.784-237.912-83.968-69.288-169.648-124.584-254.64-164.52-108.544-50.856-216.4-76.8-320.848-76.8zM125.014 448c85.674-101.376 368.64-402.776 694.274-402.776 326.312 0 608.592 301.4 694.272 402.776-85.68 101.376-368.64 402.774-694.272 402.774-326.317 0-608.6-301.398-694.274-402.774zM819.295 202.233c-135.511 0-245.761 110.248-245.761 245.757s110.25 245.76 245.761 245.76c135.504 0 245.76-110.25 245.76-245.76s-110.256-245.757-245.76-245.757zM819.295 584.523c-75.44 0-136.535-61.098-136.535-136.534s61.095-136.533 136.535-136.533c75.432 0 136.528 61.098 136.528 136.533s-61.096 136.534-136.528 136.534z" />
<glyph unicode="&#xe90d;" glyph-name="download" d="M521.833 216.733l-288.213 288.21 64.213 64.214 179.2-179.2v554.026h89.6v-554.026l179.201 179.2 64.212-64.214-288.212-288.21zM133.566-11.749c-23.893 0-44.8 8.957-62.72 26.877s-26.88 38.83-26.88 62.723v213.546h89.6v-213.546h776.531v213.546h89.6v-213.546c0-23.893-8.957-44.803-26.877-62.723s-38.83-26.877-62.723-26.877h-776.531z" />
<glyph unicode="&#xe90e;" glyph-name="calender" horiz-adv-x="878" d="M780.19 841.559h-48.762v97.524h-97.524v-97.524h-390.095v97.524h-97.524v-97.524h-48.762c-54.126 0-97.036-43.886-97.036-97.524l-0.488-682.669c0-53.638 43.398-97.524 97.524-97.524h682.667c53.638 0 97.524 43.886 97.524 97.524v682.669c0 53.638-43.886 97.524-97.524 97.524zM780.19 61.367h-682.667v487.621h682.667v-487.621zM780.19 646.512h-682.667v97.524h682.667v-97.524zM438.857 402.7h243.81v-243.81h-243.81v243.81z" />
<glyph unicode="&#xe90f;" glyph-name="fee_structure" horiz-adv-x="1755" d="M1654.155 960h-512c-20.89 0-40.931-8.299-55.698-23.071-14.775-14.772-23.069-34.807-23.069-55.698v-236.308c0.073-13.869 3.855-27.465 10.949-39.385-7.095-11.92-10.876-25.516-10.949-39.385v-78.769h-275.697v-78.769h275.697v-78.77h-315.077v-78.769h315.077v-78.767h-354.464v-78.775h354.464v-78.768h-590.772c0-20.89 8.299-40.923 23.071-55.698 14.772-14.768 34.807-23.069 55.698-23.069h512.003c13.868 0.080 27.465 3.862 39.38 10.949 11.922-7.088 25.52-10.869 39.387-10.949h512c20.89 0 40.923 8.302 55.698 23.069 14.768 14.775 23.069 34.809 23.069 55.698v236.309c-0.080 13.869-3.855 27.465-10.949 39.385 7.095 11.92 10.869 25.516 10.949 39.385v236.308c-0.080 13.869-3.855 27.465-10.949 39.385 7.095 11.919 10.869 25.516 10.949 39.385v236.308c0 20.891-8.302 40.926-23.069 55.698-14.775 14.772-34.809 23.071-55.698 23.071zM1654.155 172.31h-512v78.767h512v-78.767zM1142.155 329.846v78.77h512v-78.77h-512zM1654.155 487.385h-512v78.769h512v-78.769zM1142.155 644.923v78.769h512v-78.769h-512zM1142.155 881.231h512v-78.77h-512v78.77zM1654.155 14.768h-512v78.768h512v-78.768zM708.923 369.23c0 70.106-20.789 138.638-59.737 196.928s-94.308 103.723-159.078 130.552c-64.769 26.828-136.040 33.848-204.799 20.171s-131.918-47.436-181.49-97.009c-49.572-49.572-83.332-112.731-97.009-181.49s-6.657-140.029 20.171-204.799c26.828-64.77 72.26-120.132 130.552-159.081s126.822-59.736 196.928-59.736c93.973 0.117 184.065 37.5 250.515 103.951 66.45 66.443 103.831 156.539 103.946 250.512zM354.462 93.535c-54.527 0-107.829 16.172-153.167 46.468-45.337 30.288-80.674 73.348-101.54 123.725s-26.326 105.809-15.688 159.288c10.638 53.478 36.895 102.603 75.451 141.158s87.68 64.813 141.159 75.451c53.478 10.638 108.911 5.178 159.288-15.688s93.433-56.203 123.727-101.54c30.294-45.338 46.463-98.64 46.463-153.167-0.083-73.092-29.156-143.168-80.841-194.85s-121.759-80.757-194.851-80.845zM433.231 566.154h-39.385v39.385h-78.77v-39.385h-39.385c-20.891 0-40.926-8.299-55.698-23.071s-23.071-34.807-23.071-55.698v-78.769c0-20.891 8.299-40.926 23.071-55.698s34.807-23.071 55.698-23.071h157.539v-78.77h-157.539v39.385h-78.769v-39.385c0-20.89 8.299-40.923 23.071-55.698s34.807-23.069 55.698-23.069h39.385v-39.387h78.77v39.387h39.385c20.89 0 40.926 8.294 55.698 23.069s23.071 34.807 23.071 55.698v78.77c0 20.89-8.299 40.926-23.071 55.698s-34.808 23.071-55.698 23.071h-157.539v78.769h157.539v-39.385h78.769v39.385c0 20.891-8.299 40.926-23.071 55.698s-34.808 23.071-55.698 23.071z" />
<glyph unicode="&#xe910;" glyph-name="upload" horiz-adv-x="755" d="M461.731 909.658h-337.848c-46.454 0-84.040-43.655-84.040-97.010l-0.422-776.085c0-53.356 37.585-97.011 84.039-97.011h507.194c46.452 0 84.464 43.655 84.464 97.011v582.064l-253.388 291.031zM630.655 36.562h-506.772v776.085h295.616v-242.526h211.155v-533.559zM208.345 278.603l59.546-68.392 67.147 76.638v-201.782h84.462v201.782l67.147-77.123 59.544 68.877-168.5 194.507-169.346-194.507z" />
<glyph unicode="&#xe911;" glyph-name="add-offer" d="M97.034-30.861c-21.965 0-41.184 8.236-57.657 24.708-16.474 16.477-24.71 35.694-24.71 57.661v823.673c0 21.965 8.237 41.184 24.71 57.657s35.692 24.71 57.657 24.71h540.879v-82.367h-540.879v-823.673h823.673v540.878h82.369v-540.878c0-21.967-8.236-41.184-24.708-57.661-16.477-16.472-35.694-24.708-57.661-24.708h-823.673zM290.598 184.666v82.369h437.92v-82.369h-437.92zM290.598 359.010v82.369h437.92v-82.369h-437.92zM290.598 533.355v82.368h437.92v-82.368h-437.92zM799.905 633.569v120.806h-120.808v82.368h120.808v120.806h82.364v-120.806h120.808v-82.368h-120.808v-120.806h-82.364z" />
<glyph unicode="&#xe912;" glyph-name="eye-alt" horiz-adv-x="1502" d="M729.218 204.472c82.616 0 142.548 26.283 196.308 78.851 53.76 52.565 80.637 116.546 80.637 191.943s-26.877 139.378-80.637 191.943c-53.76 52.565-119.2 78.848-196.308 78.848-77.111 0-142.546-26.283-196.306-78.848s-80.64-116.546-80.64-191.943c0-75.396 26.88-139.377 80.64-191.943 53.76-52.569 113.691-78.851 196.306-78.851zM729.218 296.863c-51.046 0-94.217 17.256-129.513 51.769s-52.946 76.724-52.946 126.635c0 49.911 17.648 92.122 52.946 126.635s78.468 51.769 129.513 51.769c51.043 0 94.215-17.256 129.509-51.769 35.301-34.512 52.948-76.724 52.948-126.635s-17.647-92.122-52.948-126.635c-35.294-34.512-78.466-51.769-129.509-51.769zM729.218-2.601c-158.566 0-301.926 44.073-430.081 132.212s-223.728 203.358-286.72 345.655c62.991 142.298 158.565 257.518 286.72 345.657s271.516 132.21 430.081 132.21c158.563 0 301.923-44.070 430.080-132.21s223.73-203.359 286.72-345.657c-62.99-142.298-158.563-257.516-286.72-345.655s-271.517-132.212-430.080-132.212zM729.218 92.972c131.413 0 252.239 34.782 362.469 104.332 110.237 69.557 194.137 162.213 251.699 277.962-57.562 115.75-141.462 208.403-251.699 277.959-110.23 69.556-231.055 104.334-362.469 104.334s-252.239-34.778-362.473-104.334-194.677-162.209-253.324-277.959c58.647-115.75 143.088-208.405 253.324-277.962 110.235-69.55 231.059-104.332 362.473-104.332z" />
<glyph unicode="&#xe913;" glyph-name="roles" horiz-adv-x="1434" d="M486.4 857.6c-84.831 0-153.6-68.769-153.6-153.6s68.769-153.6 153.6-153.6c84.833 0 153.6 68.769 153.6 153.6s-68.767 153.6-153.6 153.6zM230.4 704c0 141.385 114.615 256 256 256s256-114.615 256-256-114.616-256-256-256c-141.385 0-256 114.615-256 256zM100.58 270.618c48.009 48.010 113.124 74.982 181.020 74.982h409.6c67.896 0 133.012-26.972 181.018-74.982 48.010-48.005 74.982-113.121 74.982-181.018v-102.4c0-28.278-22.922-51.2-51.2-51.2s-51.2 22.922-51.2 51.2v102.4c0 40.735-16.184 79.805-44.989 108.611s-67.876 44.989-108.611 44.989h-409.6c-40.737 0-79.806-16.184-108.612-44.989s-44.988-67.871-44.988-108.611v-102.4c0-28.278-22.923-51.2-51.2-51.2s-51.2 22.922-51.2 51.2v102.4c0 67.896 26.971 133.012 74.98 181.018zM1331.2 89.6l-310.784 307.2 310.784 307.2 73.216-72.192-237.568-235.008 237.568-235.008-73.216-72.192z" />
</font>
</defs>
</svg>
